<?xml version="1.0" standalone="no"?>
<!DOCTYPE svg PUBLIC "-//W3C//DTD SVG 20010904//EN"
 "http://www.w3.org/TR/2001/REC-SVG-20010904/DTD/svg10.dtd">
<svg version="1.0" xmlns="http://www.w3.org/2000/svg"
 width="260.000000pt" height="260.000000pt" viewBox="0 0 260.000000 260.000000"
 preserveAspectRatio="xMidYMid meet">
<metadata>
Created by potrace 1.14, written by Peter Selinger 2001-2017
</metadata>
<g transform="translate(0.000000,260.000000) scale(0.100000,-0.100000)"
fill="#000000" stroke="none">
<path d="M1535 2025 c-224 -41 -361 -159 -400 -341 -20 -93 -19 -150 1 -158 9
-3 89 -6 179 -6 182 0 175 -3 175 74 0 48 27 96 73 130 38 28 160 35 205 12
65 -34 93 -104 68 -170 -21 -54 -75 -106 -321 -306 -331 -270 -386 -342 -393
-518 -4 -73 -1 -96 9 -103 8 -5 265 -9 571 -9 522 0 557 1 562 18 6 21 5 288
-2 314 -4 16 -24 18 -296 20 l-291 3 135 92 c307 209 404 318 433 486 21 124
-25 263 -113 338 -61 53 -170 106 -255 124 -85 18 -245 18 -340 0z"/>
<path d="M795 1707 c-79 -27 -148 -77 -176 -130 l-16 -30 -8 59 c-12 99 -3 94
-185 94 l-160 0 0 -529 c0 -473 2 -530 16 -535 9 -3 98 -6 199 -6 l184 0 3
283 c3 245 5 287 21 322 42 94 87 117 235 123 l112 5 0 163 c0 159 -1 164 -22
175 -33 18 -156 21 -203 6z"/>
</g>
</svg>
