<?xml version="1.0" standalone="no"?>
<!DOCTYPE svg PUBLIC "-//W3C//DTD SVG 20010904//EN"
 "http://www.w3.org/TR/2001/REC-SVG-20010904/DTD/svg10.dtd">
<svg version="1.0" xmlns="http://www.w3.org/2000/svg"
 width="700.000000pt" height="700.000000pt" viewBox="0 0 700.000000 700.000000"
 preserveAspectRatio="xMidYMid meet">
<metadata>
Created by potrace 1.14, written by Peter Selinger 2001-2017
</metadata>
<g transform="translate(0.000000,700.000000) scale(0.100000,-0.100000)"
fill="#000000" stroke="none">
<path d="M3305 6293 c-346 -28 -598 -78 -882 -178 -1031 -359 -1804 -1229
-2012 -2260 -58 -286 -55 -177 -58 -2092 l-4 -1763 3151 0 3150 0 0 1688 c0
1065 -4 1731 -10 1807 -60 704 -349 1336 -839 1839 -551 564 -1259 893 -2060
955 -125 10 -340 12 -436 4z m1112 -1574 c41 -15 101 -77 131 -134 19 -38 26
-70 30 -130 5 -95 -7 -147 -48 -203 -120 -167 -350 -43 -368 198 -13 188 114
322 255 269z m-1508 -248 c158 -81 205 -352 82 -481 -96 -101 -239 -62 -312
85 -112 228 41 492 230 396z m1621 -1076 c22 -27 12 -86 -27 -165 -28 -57 -57
-95 -122 -160 -174 -172 -382 -257 -657 -267 -155 -6 -252 8 -373 53 -186 70
-371 249 -321 309 19 23 32 19 133 -35 138 -74 220 -93 397 -94 152 0 230 10
393 50 197 49 338 127 467 258 66 68 88 78 110 51z"/>
</g>
</svg>
